Coordinates
version=1
nRows=10
nColumns=40
inDegrees=yes

Units are S.I. units (second, meters, Newtons, ...)
Angles are in degrees.

endheader
time	pelvis_tilt	pelvis_list	pelvis_rotation	pelvis_tx	pelvis_ty	pelvis_tz	hip_flexion_r	hip_adduction_r	hip_rotation_r	knee_angle_r	knee_angle_r_beta	ankle_angle_r	subtalar_angle_r	mtp_angle_r	hip_flexion_l	hip_adduction_l	hip_rotation_l	knee_angle_l	knee_angle_l_beta	ankle_angle_l	subtalar_angle_l	mtp_angle_l	lumbar_extension	lumbar_bending	lumbar_rotation	arm_flex_r	arm_add_r	arm_rot_r	elbow_flex_r	pro_sup_r	wrist_flex_r	wrist_dev_r	arm_flex_l	arm_add_l	arm_rot_l	elbow_flex_l	pro_sup_l	wrist_flex_l	wrist_dev_l
     15.39500000	     -4.07223791	     -3.18404538	     -3.11438687	      0.87286585	      0.92717328	      0.42194581	     27.93454123	     -1.35214123	    -11.97721802	     17.28651555	     17.28651555	      3.14550313	     -0.59832267	      4.52097404	      0.48661080	     -2.86749650	    -13.57548063	     11.27903315	     11.27903315	     15.15666193	     -6.99400528	     -5.94807231	     -9.44105700	      6.35564870	      1.87341121	    -16.57581526	    -10.70550099	     -6.15681364	     23.65684973	     46.30913480	      0.00000000	      0.00000000	     24.54165032	    -16.42698271	     -9.57638806	     71.37976827	     47.40880384	      0.00000000	      0.00000000
     15.40750000	     -3.99973811	     -3.13185994	     -3.17390057	      0.87394550	      0.92576250	      0.42364860	     27.40256679	     -1.14633524	    -12.72168979	     15.94707622	     15.94707622	      3.37173714	      0.47588103	      5.46062854	     -0.40056835	     -2.84041705	    -13.72279370	     10.93160112	     10.93160112	     15.55652076	     -6.73396437	     -6.11755058	     -9.34167905	      6.26355204	      1.89284211	    -17.08187978	    -10.68790647	     -6.27908006	     23.73756918	     46.31460906	      0.00000000	      0.00000000	     24.76157218	    -16.46777101	     -9.64596254	     71.71500722	     47.42692277	      0.00000000	      0.00000000
     15.42000000	     -3.92767178	     -3.09723740	     -3.22776104	      0.87518285	      0.92430272	      0.42550762	     27.02584072	     -0.99382292	    -13.43937548	     15.39805955	     15.39805955	      3.67146012	      1.30525208	      6.31959199	     -1.25342577	     -2.85527288	    -13.85592749	     10.68727191	     10.68727191	     16.08016443	     -6.42341421	     -6.07818511	     -9.23048019	      6.19859569	      1.91501834	    -17.47227792	    -10.69578603	     -6.46911308	     23.89919025	     46.32643991	      0.00000000	      0.00000000	     24.86844719	    -16.49187342	     -9.72458228	     71.99397437	     47.44843326	      0.00000000	      0.00000000
     15.43250000	     -4.02530910	     -3.01164309	     -3.30930371	      0.87635882	      0.92255458	      0.42756802	     26.95197908	     -0.85607054	    -13.68474763	     15.40806482	     15.40806482	      3.59158921	      1.21127631	      6.36532710	     -1.75806882	     -2.85881980	    -13.88155101	     10.72738183	     10.72738183	     16.46420570	     -6.53544221	     -6.19203186	     -8.85566998	      6.07528852	      1.92203034	    -17.49282899	    -10.70259844	     -6.47718575	     23.89926556	     46.32711777	      0.00000000	      0.00000000	     24.89559388	    -16.51205493	     -9.73568792	     72.01883963	     47.45010472	      0.00000000	      0.00000000
     15.44500000	     -3.88359412	     -3.18955023	     -3.31938691	      0.87791582	      0.92128450	      0.42981077	     26.48408497	     -0.52653241	    -14.13127102	     15.62021914	     15.62021914	      3.49886206	      1.26720394	      6.09957583	     -2.59048312	     -3.15968113	    -13.86351347	     10.72670637	     10.72670637	     17.11698459	     -6.41676527	     -5.88351096	     -8.80634225	      6.23401551	      1.95631973	    -17.48436124	    -10.77244037	     -6.54254112	     23.87440284	     46.33772728	      0.00000000	      0.00000000	     24.78203567	    -16.47134204	     -9.77420562	     72.03760229	     47.45709136	      0.00000000	      0.00000000
     15.45750000	     -3.84459945	     -3.23480798	     -3.32700427	      0.87956911	      0.91990642	      0.43215626	     26.14390241	     -0.31931881	    -14.27067410	     16.01120174	     16.01120174	      2.44211507	      0.71566484	      2.96625842	     -2.99231765	     -3.45555108	    -14.19264350	     11.48300997	     11.48300997	     19.05259875	     -5.40102901	     -2.94111664	     -8.55353667	      6.26178189	      1.85687995	    -17.05825793	    -10.78003113	     -6.82004446	     23.45501549	     46.41074124	      0.00000000	      0.00000000	     24.44875060	    -16.41139926	    -10.05352473	     72.02287066	     47.50551279	      0.00000000	      0.00000000
     15.47000000	     -3.81106426	     -3.32356283	     -3.35298820	      0.88112930	      0.91861195	      0.43469129	     26.00219155	     -0.11579161	    -14.20865830	     16.99733866	     16.99733866	      2.37097241	      0.13301252	      2.24911104	     -3.43090902	     -3.75271887	    -14.13459630	     11.98893659	     11.98893659	     19.54597095	     -5.62637213	     -2.81363933	     -8.35384235	      6.31810083	      1.91308745	    -16.59786628	    -10.77926201	     -6.84410794	     23.47790909	     46.42181925	      0.00000000	      0.00000000	     24.14001261	    -16.29721387	    -10.01493353	     71.80886081	     47.50289867	      0.00000000	      0.00000000
     15.48250000	     -3.74782927	     -3.46937212	     -3.33670942	      0.88281473	      0.91758476	      0.43734663	     25.65265340	      0.22256302	    -13.86323731	     17.67873488	     17.67873488	      1.51047263	     -1.08705648	     -0.66845665	     -3.66097931	     -4.21081348	    -14.12251045	     13.04299477	     13.04299477	     20.66653670	     -5.57056444	     -1.27862557	     -8.15419564	      6.44921194	      1.87666375	    -15.74416355	    -10.83681062	     -6.89498109	     22.83642974	     46.48977888	      0.00000000	      0.00000000	     23.69377610	    -16.15662500	    -10.17177318	     71.36145585	     47.52778890	      0.00000000	      0.00000000
     15.49500000	     -3.69095486	     -3.58598422	     -3.31396307	      0.88440537	      0.91677941	      0.43999376	     25.49420844	      0.41925936	    -13.67345526	     18.82631358	     18.82631358	      1.70055474	     -1.70961152	     -1.39169217	     -3.77391367	     -4.64197795	    -13.91356117	     14.20688962	     14.20688962	     20.99826041	     -6.14131306	     -1.22688784	     -7.96889758	      6.55612645	      1.93191433	    -15.01767322	    -10.91344917	     -6.91682775	     22.92432940	     46.50235451	      0.00000000	      0.00000000	     23.15042748	    -15.96976360	    -10.13477810	     70.95178200	     47.52028818	      0.00000000	      0.00000000
     15.50750000	     -3.60934421	     -3.72376896	     -3.26877180	      0.88593316	      0.91634940	      0.44273262	     25.24269399	      0.67510179	    -13.35629361	     19.82968085	     19.82968085	      1.96399962	     -2.48746271	     -2.08947580	     -3.66755927	     -5.15963763	    -13.61777872	     15.82360146	     15.82360146	     21.19922914	     -6.93864085	     -1.18752357	     -7.83507687	      6.68622535	      1.96711658	    -14.06591448	    -10.97880082	     -6.90726940	     22.94772478	     46.51734530	      0.00000000	      0.00000000	     22.54812452	    -15.73933921	    -10.13184513	     70.31762141	     47.51022226	      0.00000000	      0.00000000
